<svg width="360" height="600" viewBox="0 0 360 600" fill="none" xmlns="http://www.w3.org/2000/svg">
  <rect width="360" height="600" rx="36" fill="url(#bg)"/>
  <ellipse cx="180" cy="120" rx="110" ry="72" fill="#F7E8C8" fill-opacity="0.2"/>
  <path d="M102 560C114 456 138 364 180 364C222 364 246 456 258 560H102Z" fill="#4E4B43"/>
  <path d="M118 560C128 446 148 314 180 314C212 314 232 446 242 560H118Z" fill="#C7B38A"/>
  <ellipse cx="180" cy="212" rx="64" ry="84" fill="#F5E2D0"/>
  <path d="M116 216C120 152 148 100 180 100C212 100 240 152 244 216C224 194 206 186 180 186C154 186 136 194 116 216Z" fill="#262425"/>
  <circle cx="158" cy="220" r="5.5" fill="#2F2A2B"/>
  <circle cx="202" cy="220" r="5.5" fill="#2F2A2B"/>
  <path d="M165 248C172 252 188 252 195 248" stroke="#A57471" stroke-width="4" stroke-linecap="round"/>
  <path d="M138 344C152 296 164 280 180 280C196 280 208 296 222 344" fill="#D5BF8A"/>
  <rect x="228" y="356" width="32" height="44" rx="8" fill="#D8B457"/>
  <circle cx="244" cy="378" r="6" fill="#C7962F"/>
  <path d="M128 354C118 392 108 430 102 470" stroke="#EEE4D1" stroke-opacity="0.62" stroke-width="12" stroke-linecap="round"/>
  <text x="180" y="540" text-anchor="middle" fill="#F6EFE4" font-size="26" font-family="serif">薛宝钗</text>
  <defs>
    <linearGradient id="bg" x1="180" y1="0" x2="180" y2="600" gradientUnits="userSpaceOnUse">
      <stop stop-color="#7B7C7A"/>
      <stop offset="1" stop-color="#151415"/>
    </linearGradient>
  </defs>
</svg>
