<svg width="360" height="600" viewBox="0 0 360 600" fill="none" xmlns="http://www.w3.org/2000/svg">
  <rect width="360" height="600" rx="36" fill="url(#bg)"/>
  <ellipse cx="180" cy="120" rx="114" ry="74" fill="#D2E5DF" fill-opacity="0.16"/>
  <path d="M106 560C118 456 140 366 180 366C220 366 242 456 254 560H106Z" fill="#3D4541"/>
  <path d="M122 560C132 446 146 312 180 312C214 312 228 446 238 560H122Z" fill="#6F8E81"/>
  <ellipse cx="180" cy="212" rx="60" ry="84" fill="#F0E0D2"/>
  <path d="M118 214C124 152 148 98 180 98C212 98 236 152 242 214C224 194 204 184 180 184C156 184 136 194 118 214Z" fill="#20272A"/>
  <circle cx="158" cy="220" r="5.5" fill="#293033"/>
  <circle cx="202" cy="220" r="5.5" fill="#293033"/>
  <path d="M166 248C172 252 188 252 194 248" stroke="#AF8888" stroke-width="4" stroke-linecap="round"/>
  <path d="M142 340C154 296 164 280 180 280C196 280 206 296 218 340" fill="#7CA18E"/>
  <path d="M252 360L274 420" stroke="#C8A56A" stroke-width="6" stroke-linecap="round"/>
  <path d="M128 356C116 394 108 434 102 472" stroke="#DCEAE5" stroke-opacity="0.6" stroke-width="12" stroke-linecap="round"/>
  <text x="180" y="540" text-anchor="middle" fill="#F2ECE7" font-size="26" font-family="serif">龄官</text>
  <defs>
    <linearGradient id="bg" x1="180" y1="0" x2="180" y2="600" gradientUnits="userSpaceOnUse">
      <stop stop-color="#455D57"/>
      <stop offset="1" stop-color="#121516"/>
    </linearGradient>
  </defs>
</svg>
