<svg width="360" height="600" viewBox="0 0 360 600" fill="none" xmlns="http://www.w3.org/2000/svg">
  <rect width="360" height="600" rx="36" fill="url(#bg)"/>
  <ellipse cx="180" cy="120" rx="112" ry="72" fill="#FFD4C9" fill-opacity="0.24"/>
  <path d="M104 560C116 456 138 366 180 366C222 366 244 456 256 560H104Z" fill="#472122"/>
  <path d="M120 560C130 446 148 314 180 314C212 314 230 446 240 560H120Z" fill="#B03E43"/>
  <ellipse cx="180" cy="212" rx="64" ry="84" fill="#F3D9C8"/>
  <path d="M116 214C120 150 148 100 180 100C212 100 240 150 244 214C224 194 206 184 180 184C154 184 136 194 116 214Z" fill="#27151A"/>
  <circle cx="158" cy="220" r="6" fill="#2D171C"/>
  <circle cx="202" cy="220" r="6" fill="#2D171C"/>
  <path d="M164 248C172 254 188 254 196 248" stroke="#A46767" stroke-width="4" stroke-linecap="round"/>
  <path d="M138 344C154 296 164 278 180 278C196 278 206 296 222 344" fill="#D34549"/>
  <path d="M250 322L288 454" stroke="#E3E3E3" stroke-width="7" stroke-linecap="round"/>
  <path d="M238 336L258 372" stroke="#F8ECDD" stroke-width="10" stroke-linecap="round"/>
  <path d="M130 354C118 392 108 434 102 474" stroke="#F0D4D1" stroke-opacity="0.65" stroke-width="12" stroke-linecap="round"/>
  <text x="180" y="540" text-anchor="middle" fill="#FAECE4" font-size="26" font-family="serif">尤三姐</text>
  <defs>
    <linearGradient id="bg" x1="180" y1="0" x2="180" y2="600" gradientUnits="userSpaceOnUse">
      <stop stop-color="#7D232B"/>
      <stop offset="1" stop-color="#140E11"/>
    </linearGradient>
  </defs>
</svg>
